{"title":"Parasyte Part 2 2015 BRRip XviD MP3 Idiocracy","uid":12747044,"size":769503524,"categoryP":"video","categoryS":"movies","magnet":"?xt=urn:btih:6a98dc5403e1d2db32d6d54ec1f7ce2f5df05de1&amp;dn=Parasyte+Part+2+2015+BRRip+XviD+MP3+Idiocracy&amp;tr=udp%3A%2F%2Ftracker.leechers-paradise.org%3A6969&amp;tr=udp%3A%2F%2Fzer0day.ch%3A1337&amp;tr=udp%3A%2F%2Fopen.demonii.com%3A1337&amp;tr=udp%3A%2F%2Ftracker.coppersurfer.tk%3A6969&amp;tr=udp%3A%2F%2Fexodus.desync.com%3A6969","seeders":0,"leechers":1,"uploader":"Satafakap","files":2,"time":1447324971,"description":"Synopsis / Plot\r\n\r\nHumanity is under attack by human-mimicking flesh-eating alien parasites. One parasite bonds with his young high school student host, and he convinces the parasite to help him stop the others.\r\n\r\nDirector: Takashi Yamazaki\r\nWriters: Hitoshi Iwaaki (manga), Ryôta Kosawa (screenplay)\r\nStars: Shôta Sometani, Eri Fukatsu, Ai Hashimoto\r\n \nhttp://www.imdb.com/title/tt3345474/\r\n\r\nGeneral\r\n\r\nComplete name         : Parasyte.Part.2.2015.BRRip.XviD.MP3-Idiocracy.avi\r\nFormat                : AVI\r\nFormat/Info           : Audio Video Interleave\r\nFile size             : 728 MiB\r\nDuration              : 1h 57mn\r\nOverall bit rate      : 863 Kbps\r\nWriting application   : VirtualDubMod 1.5.10.3 | www.virtualdub-fr.org\r\nWriting library       : VirtualDubMod build 2550/release\r\nSource                : Parasyte.Part.2.2015.JAP.1080p.BluRay.x264.DTS-JYK - Thanks!\r\nSample                : Yes\r\n\r\nVideo\r\n\r\nID                                       : 0\r\nFormat                                   : MPEG-4 Visual\r\nFormat profile                           : Advanced   \r\nFormat settings, BVOP                    : 2\r\nFormat settings, QPel                    : No\r\nFormat settings, GMC                     : No warppoints\r\nFormat settings, Matrix                  : Default (H.263)\r\nMuxing mode                              : Packed bitstream\r\nCodec ID                                 : XVID\r\nCodec ID/Hint                            : XviD\r\nDuration                                 : 1h 57mn\r\nBit rate                                 : 726 Kbps\r\nWidth                                    : 640 pixels\r\nHeight                                   : 264 pixels\r\nDisplay aspect ratio                     : 2.40:1\r\nFrame rate                               : 23.976 fps\r\nColor space                              : YUV\r\nChroma subsampling                       : 4:2:0\r\nBit depth                                : 8 bits\r\nScan type                                : Progressive\r\nCompression mode                         : Lossy\r\nBits/(Pixel*Frame)                       : 0.179\r\nStream size                              : 612 MiB (84%)\r\nWriting library                          : XviD 64\r\n\r\nAudio\r\n\r\nID                                       : 1\r\nFormat                                   : MPEG Audio\r\nFormat version                           : Version 1\r\nFormat profile                           : Layer 3\r\nMode                                     : Joint stereo\r\nCodec ID                                 : 55\r\nCodec ID/Hint                            : MP3\r\nDuration                                 : 1h 57mn\r\nBit rate mode                            : Constant\r\nBit rate                                 : 128 Kbps\r\nChannel(s)                               : 2 channels\r\nSampling rate                            : 48.0 KHz\r\nCompression mode                         : Lossy\r\nStream size                              : 108 MiB (15%)\r\nAlignment                                : Split accross interleaves\r\nInterleave, duration                     : 42 ms (1.00 video frame)\r\nInterleave, preload duration             : 500 ms\r\n\r\n\r\nScreenshots:\r\n \nhttp://i.imgur.com/jCIAQlM.jpg\r\n \nhttp://i.imgur.com/BvxQgLs.jpg\r\n \nhttp://i.imgur.com/fBugYHQ.jpg\r\n \nhttp://i.imgur.com/ASzZ3Ko.jpg\r\n \nhttp://i.imgur.com/KlSpmCi.jpg","torrent":{"xt":"urn:btih:6a98dc5403e1d2db32d6d54ec1f7ce2f5df05de1","amp;dn":"Parasyte+Part+2+2015+BRRip+XviD+MP3+Idiocracy","amp;tr":["udp%3A%2F%2Ftracker.leechers-paradise.org%3A6969","udp%3A%2F%2Fzer0day.ch%3A1337","udp%3A%2F%2Fopen.demonii.com%3A1337","udp%3A%2F%2Ftracker.coppersurfer.tk%3A6969","udp%3A%2F%2Fexodus.desync.com%3A6969"],"infoHash":"6a98dc5403e1d2db32d6d54ec1f7ce2f5df05de1","infoHashBuffer":{"type":"Buffer","data":[106,152,220,84,3,225,210,219,50,214,213,78,193,247,206,47,93,240,93,225]},"announce":[],"urlList":[]}}